<svg width="99" height="32" viewBox="0 0 99 32" fill="none" xmlns="http://www.w3.org/2000/svg">
<g clip-path="url(#clip0)">
<path d="M5.48141 27.6594C5.77566 27.6594 6.03314 27.4019 6.03314 27.1076C6.03314 26.8134 5.77566 26.5559 5.48141 26.5559C5.18716 26.5559 4.92969 26.8134 4.92969 27.1076C4.92969 27.4019 5.18716 27.6594 5.48141 27.6594Z" fill="#009BDD"/>
<path d="M47.4853 31.9266C47.7796 31.9266 48.037 31.6691 48.037 31.3748C48.037 31.0806 47.7796 30.8231 47.4853 30.8231C47.1911 30.8231 46.9336 31.0806 46.9336 31.3748C46.9336 31.7059 47.1911 31.9266 47.4853 31.9266Z" fill="#6B196B"/>
<path d="M21.779 28.6154C21.779 27.9901 21.5583 27.4751 21.1905 27.1441L21.1538 27.1073C20.7859 26.8131 20.3078 26.6292 19.7193 26.6292H19.6825C19.6825 26.6292 19.6825 26.6292 19.6457 26.6292C19.0572 26.6292 18.579 26.8131 18.2112 27.1073L18.1744 27.1441C17.8066 27.4751 17.5859 27.9901 17.5859 28.6154V31.7418C17.5859 31.7786 17.5859 31.8154 17.6227 31.8521C17.6595 31.8889 17.6963 31.8889 17.7331 31.8889H18.2848C18.3216 31.8889 18.3584 31.8889 18.3951 31.8521C18.4319 31.8154 18.4319 31.7786 18.4319 31.7418V28.7257C18.4319 28.2843 18.5423 27.9533 18.7629 27.7694C18.9469 27.5855 19.2779 27.4383 19.6825 27.4383C20.0871 27.4383 20.3813 27.5487 20.602 27.7694C20.8227 27.9901 20.9331 28.2843 20.9331 28.7257V31.7418C20.9331 31.7786 20.9331 31.8154 20.9698 31.8521C21.0066 31.8889 21.0434 31.8889 21.0802 31.8889H21.6319C21.6687 31.8889 21.7055 31.8889 21.7423 31.8521C21.779 31.8154 21.779 31.7786 21.779 31.7418V28.6154Z" fill="#D5006C"/>
<path d="M41.2322 28.6154C41.2322 27.9901 41.0115 27.4751 40.6437 27.1441L40.6069 27.1073C40.2391 26.8131 39.7609 26.6292 39.1724 26.6292H39.1356C39.1356 26.6292 39.1356 26.6292 39.0988 26.6292C38.5103 26.6292 38.0322 26.8131 37.6644 27.1073L37.6276 27.1441C37.2598 27.4751 37.0391 27.9901 37.0391 28.6154V31.7418C37.0391 31.7786 37.0391 31.8154 37.0758 31.8521C37.1126 31.8889 37.1494 31.8889 37.1862 31.8889H37.7379C37.7747 31.8889 37.8115 31.8889 37.8483 31.8521C37.885 31.8154 37.885 31.7786 37.885 31.7418V28.7257C37.885 28.2843 37.9954 27.9533 38.2161 27.7694C38.4 27.5855 38.731 27.4383 39.1356 27.4383C39.5402 27.4383 39.8345 27.5487 40.0552 27.7694C40.2758 27.9901 40.3862 28.2843 40.3862 28.7257V31.7418C40.3862 31.7786 40.3862 31.8154 40.423 31.8521C40.4597 31.8889 40.4965 31.8889 40.5333 31.8889H41.085C41.1218 31.8889 41.1586 31.8889 41.1954 31.8521C41.2322 31.8154 41.2322 31.7786 41.2322 31.7418V28.6154Z" fill="#D5006C"/>
<path d="M30.824 29.3153C30.824 29.8302 30.7872 30.3084 30.5665 30.6762C30.3826 31.0072 30.0884 31.2279 29.4999 31.2279C29.4999 31.2279 29.4999 31.2279 29.4631 31.2279C28.8746 31.2279 28.5803 31.0072 28.3964 30.6762C28.2125 30.3084 28.1389 29.8302 28.1389 29.3153V29.2785C28.1389 28.7636 28.1757 28.3958 28.3964 28.0279C28.5803 27.6969 28.8746 27.4762 29.4631 27.4762C30.0516 27.4762 30.3458 27.6969 30.5297 28.0647C30.7504 28.3958 30.824 28.8003 30.824 29.3153ZM30.9711 27.182C30.6401 26.8877 30.1252 26.7038 29.5366 26.7038H29.4999C29.0217 26.7038 28.5435 26.8141 28.1389 27.1452V26.8509V25.2693C28.1389 25.2325 28.1389 25.1958 28.1022 25.159C28.0654 25.1222 28.0286 25.1222 27.9918 25.1222H27.4401C27.4033 25.1222 27.3665 25.1222 27.3298 25.159C27.293 25.1958 27.293 25.2325 27.293 25.2693V26.8509V30.198V31.7797C27.293 31.8164 27.293 31.8532 27.3298 31.89C27.3665 31.9268 27.4033 31.9268 27.4401 31.9268H27.9918C28.0286 31.9268 28.0654 31.9268 28.1022 31.89C28.1389 31.8532 28.1389 31.8164 28.1389 31.7797V31.4486C28.5068 31.8532 29.0217 32.0003 29.4999 32.0003H29.5366C30.1252 32.0003 30.6401 31.8164 30.9343 31.5222C31.5229 30.9705 31.67 30.0877 31.67 29.3153C31.7068 28.5061 31.5596 27.7337 30.9711 27.182Z" fill="#D5006C"/>
<path d="M15.9643 30.0136C15.9643 30.4182 15.854 30.6757 15.7436 30.786C15.4494 31.0435 15.0816 31.1171 14.6402 31.1171C14.1988 31.1171 13.9413 31.0435 13.7574 30.9332C13.6103 30.8228 13.5367 30.6757 13.5367 30.3814C13.5367 30.124 13.6103 29.9401 13.7942 29.8297C13.9413 29.7194 14.2356 29.609 14.6402 29.609H16.0011V30.0136H15.9643ZM16.8839 28.3952C16.8839 27.8435 16.6999 27.4021 16.3321 27.1079C15.9643 26.8136 15.4126 26.6665 14.7505 26.6665H14.7137C13.9781 26.6665 13.4264 26.8136 12.985 27.2918L12.9482 27.3286C12.9114 27.3654 12.8747 27.4021 12.8379 27.4389L12.8011 27.4757C12.7643 27.5125 12.7643 27.5493 12.7643 27.586C12.7643 27.6228 12.8011 27.6596 12.8379 27.6964L12.8747 27.7332L12.9114 27.77L13.0218 27.8435L13.2793 28.0642C13.316 28.101 13.3528 28.101 13.3896 28.101C13.4264 28.101 13.4632 28.0642 13.4999 28.0642L13.6839 27.8803C13.7942 27.77 13.9045 27.6964 14.0149 27.6228C14.1988 27.5493 14.4195 27.5125 14.7873 27.5125C15.2655 27.5125 15.5597 27.6228 15.7436 27.77C15.9275 27.9171 16.0011 28.1378 16.0011 28.5056V28.8366H14.5666C13.9781 28.8366 13.4999 28.9837 13.1689 29.2412C12.8379 29.4987 12.6172 29.9033 12.6172 30.3814C12.6172 30.786 12.7643 31.1539 13.0218 31.4481C13.3896 31.8159 13.8678 31.9263 14.6034 31.9263H14.9712C15.6333 31.9263 16.1482 31.7424 16.4425 31.4113C16.7367 31.0803 16.8839 30.6021 16.8839 29.9769V28.3952Z" fill="#D5006C"/>
<path d="M32.996 30.3814C32.996 30.0872 33.0696 29.9401 33.2535 29.8297C33.4006 29.7194 33.6949 29.609 34.0995 29.609H35.4604V30.0504C35.4604 30.455 35.3501 30.7125 35.2397 30.8228C34.9455 31.0803 34.5777 31.1539 34.1363 31.1539C33.6949 31.1539 33.4374 31.0803 33.2535 30.97C33.0696 30.786 32.996 30.6389 32.996 30.3814ZM36.38 28.3952C36.38 27.8435 36.1961 27.4021 35.8282 27.1079C35.4604 26.8136 34.9087 26.6665 34.2466 26.6665H34.2098C33.4742 26.6665 32.9225 26.8136 32.4811 27.2918L32.4443 27.3286C32.4075 27.3654 32.3708 27.4021 32.334 27.4389L32.2972 27.4757C32.2604 27.5125 32.2604 27.5493 32.2604 27.586C32.2604 27.6228 32.2972 27.6596 32.334 27.6964L32.3708 27.7332L32.4075 27.77L32.5179 27.8435L32.7754 28.0642C32.8121 28.101 32.8489 28.101 32.8857 28.101C32.9225 28.101 32.9593 28.0642 32.996 28.0642L33.1799 27.8803C33.2903 27.77 33.4006 27.6964 33.511 27.6228C33.6949 27.5493 33.9156 27.5125 34.2834 27.5125C34.7616 27.5125 35.0558 27.6228 35.2397 27.77C35.4236 27.9171 35.4972 28.1378 35.4972 28.5056V28.8366H34.0627C33.4742 28.8366 32.996 28.9837 32.665 29.2412C32.334 29.4987 32.1133 29.9033 32.1133 30.3814C32.1133 30.786 32.2604 31.1539 32.5179 31.4481C32.8857 31.8159 33.3639 31.9263 34.0995 31.9263H34.4673C35.1294 31.9263 35.6443 31.7424 35.9386 31.4113C36.2328 31.0803 36.38 30.6021 36.38 29.9769V28.3952Z" fill="#D5006C"/>
<path d="M8.31564 26.6663H7.35932V25.71V25.2318C7.35932 25.1583 7.28576 25.0847 7.21219 25.0847H6.62369C6.58691 25.0847 6.55013 25.0847 6.51334 25.1215C6.47656 25.1583 6.47656 25.1951 6.47656 25.2318V26.1146V30.602C6.47656 30.9698 6.58691 31.3008 6.8076 31.5583C7.02829 31.8158 7.3961 31.9629 7.8007 31.9629H8.05817H8.27886C8.31564 31.9629 8.35242 31.9629 8.38921 31.9261C8.42599 31.8893 8.42599 31.8525 8.42599 31.8158V31.264C8.42599 31.2272 8.42599 31.1905 8.38921 31.1537C8.35242 31.1169 8.31564 31.1169 8.27886 31.1169H7.83748C7.76392 31.1169 7.69036 31.1169 7.61679 31.0801C7.58001 31.0801 7.54323 31.0433 7.54323 31.0433C7.50645 31.0433 7.50645 31.0066 7.46967 31.0066C7.3961 30.933 7.32254 30.7859 7.32254 30.5652V27.6594H8.27886C8.31564 27.6594 8.35242 27.6594 8.38921 27.6226C8.42599 27.5859 8.42599 27.5491 8.42599 27.5123V26.8502C8.42599 26.8135 8.42599 26.7767 8.38921 26.7399C8.38921 26.7031 8.35242 26.6663 8.31564 26.6663Z" fill="#D5006C"/>
<path d="M12.3602 27.3286L12.3234 27.255C12.3234 27.255 12.3234 27.255 12.3234 27.2182H12.2866L12.2498 27.1814L12.213 27.1447C11.882 26.8136 11.4774 26.6665 11.0728 26.6665H11.036C10.7418 26.6665 10.3739 26.8136 10.1533 27.0711L10.0061 27.2182V27.1447V26.8136C10.0061 26.7768 10.0061 26.7401 9.96935 26.7033C9.93257 26.6665 9.89579 26.6665 9.85901 26.6665H9.30728C9.2705 26.6665 9.23372 26.6665 9.19694 26.7033C9.16016 26.7401 9.16016 26.7768 9.16016 26.8136V27.1447V31.7792C9.16016 31.8159 9.16016 31.8527 9.19694 31.8895C9.23372 31.9263 9.2705 31.9263 9.30728 31.9263H9.41763H9.74866H9.82223C9.85901 31.9263 9.89579 31.9263 9.93257 31.8895C9.96935 31.8527 9.96935 31.8159 9.96935 31.7792V31.7056V28.7631V28.5424C9.96935 28.2849 10.0797 28.0274 10.2268 27.8435C10.3739 27.6596 10.5946 27.5125 10.8889 27.5125C11.036 27.5125 11.1464 27.5493 11.2567 27.586C11.3303 27.6228 11.4406 27.6964 11.551 27.8067L11.5877 27.8435L11.6981 27.9906C11.7349 28.0274 11.7716 28.0274 11.8084 28.0274C11.8452 28.0274 11.882 28.0274 11.9188 27.9906L12.3234 27.6228C12.3602 27.586 12.3602 27.5493 12.3969 27.5125C12.3969 27.4021 12.3969 27.3654 12.3602 27.3286Z" fill="#D5006C"/>
<path d="M26.2224 29.2039C25.8914 28.9832 25.4868 28.9096 25.0454 28.8728L24.2362 28.7993C23.9052 28.7625 23.6845 28.6889 23.5741 28.6154C23.4638 28.5418 23.3902 28.3947 23.3902 28.2108C23.3902 27.9901 23.5006 27.8062 23.6477 27.6958C23.8316 27.5855 24.0891 27.4751 24.4937 27.4751C24.9718 27.4751 25.4132 27.5855 25.7442 27.8062L25.9649 27.9533C26.0017 27.9901 26.0385 27.9901 26.0753 27.9901C26.1121 27.9901 26.1488 27.9533 26.1856 27.9165L26.4799 27.4751C26.5167 27.4383 26.5167 27.4016 26.5167 27.3648C26.5167 27.328 26.5167 27.328 26.4799 27.2912C26.4799 27.2544 26.4431 27.2544 26.4431 27.2177L26.4063 27.1809C25.9282 26.8498 25.2293 26.6292 24.4937 26.6292C23.9052 26.6292 23.3902 26.7763 23.0224 27.0337C22.6546 27.2912 22.4339 27.6958 22.4339 28.174C22.4339 28.5786 22.581 28.9464 22.8753 29.1671C23.1695 29.4246 23.6109 29.5349 24.1259 29.6085L24.9718 29.682C25.2661 29.7188 25.4868 29.7924 25.5971 29.8659C25.7075 29.9395 25.7442 30.0866 25.7442 30.2705C25.7442 30.528 25.6339 30.7119 25.45 30.8223C25.2293 30.9694 24.8983 31.0429 24.4201 31.0429C23.7948 31.0429 23.3534 30.8958 23.0224 30.6016L22.8753 30.528C22.8385 30.4912 22.8017 30.4912 22.7649 30.4912C22.7282 30.4912 22.6914 30.528 22.6546 30.5648L22.2868 31.0062C22.25 31.0429 22.25 31.0797 22.25 31.1165C22.25 31.1533 22.2868 31.1901 22.2868 31.2268L22.4707 31.374H22.5075C23.0224 31.7418 23.6845 31.9257 24.4569 31.9257C25.119 31.9257 25.6707 31.7786 26.0753 31.5211C26.4799 31.2636 26.7006 30.8222 26.7006 30.3441V30.3073C26.7374 29.8291 26.5167 29.4246 26.2224 29.2039Z" fill="#D5006C"/>
<path d="M46.4538 31.7051L45.755 30.7488L44.3941 28.7258L45.4607 27.5856L46.086 26.9235L46.1228 26.8868C46.1964 26.8132 46.1596 26.7396 46.1228 26.7028C46.086 26.6661 46.0492 26.6661 46.0124 26.6661H45.3136C45.2768 26.6661 45.2033 26.7028 45.1665 26.7396L42.7757 29.3143V27.181V25.3051C42.7757 25.2684 42.7757 25.2316 42.7389 25.1948C42.7021 25.158 42.6653 25.158 42.6285 25.158H42.0768C42.04 25.158 42.0033 25.158 41.9665 25.1948C41.9297 25.2316 41.9297 25.2684 41.9297 25.3051V27.181V31.8155C41.9297 31.8523 41.9297 31.8891 41.9665 31.9258C42.0033 31.9626 42.04 31.9626 42.0768 31.9626H42.6285C42.6653 31.9626 42.7021 31.9626 42.7389 31.9258C42.7757 31.8891 42.7757 31.8523 42.7757 31.8155V30.4914L43.8055 29.3511L44.5044 30.4178L45.4975 31.8891C45.5343 31.9258 45.5711 31.9626 45.6446 31.9626H46.3435C46.3803 31.9626 46.417 31.9626 46.4538 31.9258C46.4906 31.8523 46.5274 31.7787 46.4538 31.7051Z" fill="#D5006C"/>
<path d="M40.3125 25.1222H40.4228L40.57 25.5636L40.7171 25.1222H40.8274V25.6371H40.7539V25.3429V25.3061C40.7539 25.2693 40.7539 25.2693 40.7539 25.2325L40.6068 25.6739H40.5332L40.3861 25.2325V25.3061C40.3861 25.3429 40.3861 25.3429 40.3861 25.3797V25.6739H40.3125V25.1222Z" fill="#D5006C"/>
<path d="M41.3066 25.3797C41.3434 25.3797 41.3802 25.3797 41.3802 25.3429C41.3802 25.3429 41.417 25.3061 41.417 25.2693C41.417 25.2325 41.417 25.1958 41.3802 25.1958H41.3434H41.1963V25.3797H41.3066ZM41.0859 25.1222H41.3066C41.3434 25.1222 41.3802 25.1222 41.417 25.1222C41.4538 25.159 41.4905 25.1958 41.4905 25.2325C41.4905 25.2693 41.4905 25.2693 41.4905 25.3061C41.4905 25.3429 41.4538 25.3429 41.4538 25.3429C41.4905 25.3429 41.4905 25.3429 41.4905 25.3797C41.4905 25.3797 41.4905 25.4164 41.4905 25.4532V25.5268C41.4905 25.5636 41.4905 25.5636 41.4905 25.5636C41.4905 25.5636 41.4905 25.6004 41.5273 25.6004H41.4538V25.5636V25.49C41.4538 25.4532 41.4538 25.4164 41.417 25.4164C41.417 25.4164 41.3802 25.4164 41.3434 25.4164H41.1963V25.6371H41.1227V25.1222H41.0859Z" fill="#D5006C"/>
<path d="M40.9417 25.6363C40.9417 25.6363 40.9049 25.6363 40.9417 25.6363C40.9049 25.5627 40.9049 25.5627 40.9417 25.5627C40.9784 25.5627 40.9784 25.5627 40.9417 25.6363C40.9784 25.6363 40.9784 25.6363 40.9417 25.6363Z" fill="#D5006C"/>
<path d="M41.637 25.6363C41.6002 25.6363 41.6002 25.6363 41.637 25.6363C41.6002 25.5627 41.6002 25.5627 41.637 25.5627C41.637 25.5627 41.6737 25.5627 41.637 25.6363C41.6737 25.6363 41.637 25.6363 41.637 25.6363Z" fill="#D5006C"/>
<path d="M52.3034 12.5425V12.6161C52.3034 14.1241 52.1563 15.5586 51.5678 16.6253C51.016 17.6184 50.0965 18.3172 48.3678 18.3172C48.3678 18.3172 48.331 18.3172 48.2942 18.3172H48.2574C46.4919 18.3172 45.6091 17.6184 45.0206 16.6253C44.4321 15.5954 44.285 14.1241 44.285 12.6161V12.5057C44.285 10.9977 44.4321 9.82069 45.0206 8.79081C45.5724 7.76092 46.4919 7.09885 48.2574 7.09885H48.2942H48.331C50.0965 7.09885 50.9792 7.7977 51.5678 8.79081C52.1195 9.82069 52.3034 11.0345 52.3034 12.5057V12.5425ZM52.8183 6.21609C52.7815 6.21609 52.7815 6.17931 52.8183 6.21609C51.8252 5.29655 50.3172 4.78161 48.5517 4.78161C48.5149 4.78161 48.4781 4.78161 48.4413 4.78161C47.0068 4.78161 45.5724 5.07586 44.3218 6.14253V5.22299V0.478161C44.3218 0.367816 44.285 0.22069 44.1747 0.147126C44.0643 0.0735632 43.954 0 43.8068 0H42.1517C42.0045 0 41.8942 0.0367816 41.7838 0.147126C41.6735 0.22069 41.6367 0.367816 41.6367 0.478161V5.18621V15.2276V19.9356C41.6367 20.046 41.6735 20.1931 41.7838 20.2667C41.8942 20.3402 42.0045 20.4138 42.1517 20.4138H43.8068C43.954 20.4138 44.0643 20.377 44.1747 20.2667C44.285 20.1931 44.3218 20.046 44.3218 19.9356V18.9793C45.4252 20.1931 47.0068 20.6345 48.4413 20.6345H48.5517C50.3172 20.6345 51.8252 20.0828 52.7815 19.2C54.5471 17.508 54.9517 14.9701 54.9517 12.5793C54.9517 10.1517 54.5471 7.87127 52.8183 6.21609Z" fill="#6B196B"/>
<path d="M67.4573 12.8734C67.4573 14.3814 67.3102 15.5584 66.7217 16.5883C66.17 17.6182 65.2505 18.2803 63.4849 18.2803H63.4482H63.4114C61.6459 18.2803 60.7631 17.5814 60.1746 16.5883C59.5861 15.5584 59.439 14.3446 59.439 12.8734V12.7998C59.439 11.2918 59.5861 9.82049 60.1746 8.79061C60.7263 7.76072 61.6459 7.09865 63.4114 7.09865H63.4482C63.4849 7.09865 63.4849 7.09865 63.5217 7.09865C65.2505 7.13543 66.17 7.7975 66.7217 8.79061C67.2734 9.82049 67.4573 11.2918 67.4573 12.7998V12.8366V12.8734ZM67.9355 19.1262C69.6642 17.4711 70.0688 15.1906 70.0688 12.7998C70.0688 10.409 69.6642 7.83428 67.8987 6.17911C66.9424 5.29635 65.4344 4.74463 63.6688 4.74463H63.5585C62.124 4.74463 60.5424 5.14923 59.439 6.3998V5.44348C59.439 5.33313 59.4022 5.18601 59.2918 5.11245C59.1815 5.03888 59.0711 4.96532 58.924 4.96532H57.2688C57.1217 4.96532 57.0114 5.0021 56.901 5.11245C56.7907 5.18601 56.7539 5.33313 56.7539 5.44348V10.1515V20.1929V24.901C56.7539 25.0113 56.7907 25.1584 56.901 25.232C57.0114 25.3055 57.1217 25.3791 57.2688 25.3791H58.924C59.0711 25.3791 59.1815 25.3423 59.2918 25.232C59.4022 25.1584 59.439 25.0113 59.439 24.901V20.1561V19.2366C60.6895 20.3033 62.124 20.5975 63.5585 20.5975C63.5953 20.5975 63.6321 20.5975 63.6688 20.5975C65.4344 20.5607 66.9792 20.0458 67.9355 19.1262C67.9355 19.163 67.9355 19.1262 67.9355 19.1262Z" fill="#6B196B"/>
<path d="M91.5124 21.811C91.3653 22.2156 91.1078 22.8409 90.9239 23.2087C90.9239 23.2087 90.5929 23.9076 90.1515 24.349C89.7469 24.7536 89.2687 25.0478 88.7538 25.195C88.2389 25.3421 87.9078 25.3789 87.9078 25.3789C87.5032 25.4156 86.8779 25.4156 86.5469 25.4156C86.2159 25.4156 85.9584 25.0846 85.9584 24.6432V23.5398C85.9584 23.1352 86.1423 22.7674 86.3262 22.7674C86.5469 22.7674 87.0251 22.7306 87.4664 22.6938C87.4664 22.6938 87.7975 22.657 88.055 22.4363C88.3492 22.2156 88.4963 21.8846 88.4963 21.8846C88.6802 21.5168 88.9377 20.8547 89.0481 20.4869L89.3423 19.6409C89.4894 19.2363 89.4894 18.611 89.3423 18.2064L84.7446 5.62713C84.5975 5.22254 84.8182 4.92828 85.2596 4.92828H86.8779C87.2825 4.92828 87.7607 5.25932 87.871 5.66392L90.8871 14.5651C91.0343 14.9697 91.2549 14.9697 91.3653 14.5651L94.3078 5.66392C94.4549 5.25932 94.8963 4.92828 95.3009 4.92828H96.9193C97.3239 4.92828 97.5446 5.25932 97.4342 5.62713L91.5124 21.811Z" fill="#6B196B"/>
<path d="M74.0054 15.8524C74.0054 15.0064 74.2628 14.5283 74.7042 14.1605C75.1824 13.7927 75.9916 13.572 77.2054 13.572H81.2513V14.8225C81.2513 16.0731 80.9939 16.7352 80.6261 17.0662C79.7433 17.8754 78.6766 17.9858 77.3525 17.9858H77.3157C76.0284 17.9858 75.2192 17.7651 74.741 17.434C74.2628 17.1398 74.0422 16.6616 74.0054 15.8524ZM84.01 10.0777C84.01 8.4961 83.495 7.13518 82.3916 6.25242C81.2881 5.33288 79.7065 4.92828 77.6835 4.92828H77.61H77.5732C75.4399 4.92828 73.7479 5.40644 72.4238 6.76736L72.3502 6.84093C72.2399 6.95127 72.1663 7.06162 72.0559 7.17196L71.9088 7.31909C71.8353 7.42943 71.7985 7.53978 71.7985 7.65012C71.7985 7.76047 71.872 7.90759 71.9824 7.98116L72.0559 8.05472C72.0927 8.0915 72.1295 8.12828 72.1663 8.16507L72.4605 8.38575L73.233 9.04782C73.3433 9.12139 73.4537 9.19495 73.6008 9.15817C73.7111 9.15817 73.8582 9.08461 73.9318 9.01104L74.41 8.42254C74.7042 8.0915 75.0353 7.83403 75.4031 7.6869C75.9548 7.46621 76.6537 7.35587 77.6468 7.31909H77.6835C79.118 7.31909 80.0008 7.61334 80.5157 8.05472C81.0307 8.4961 81.2881 9.15817 81.2881 10.1881V10.2248V11.1812H77.0582C75.3663 11.1812 73.9318 11.5858 72.9019 12.3582C71.872 13.1306 71.3203 14.3444 71.3203 15.7421V15.7789C71.3203 16.9559 71.7617 18.0961 72.5709 18.9053C73.6376 19.972 75.1088 20.3766 77.2789 20.3766H77.3157H78.4192C80.4054 20.3766 81.8399 19.8984 82.7594 18.9053C83.6789 17.9122 84.0468 16.4777 84.0468 14.6754L84.01 10.0777Z" fill="#6B196B"/>
<path d="M24.7145 4.96564C24.2731 4.96564 23.8317 5.29667 23.7214 5.73805L20.8524 15.853C20.7421 16.2576 20.5214 16.2944 20.3743 15.853L17.0271 5.70127C16.88 5.29667 16.4386 4.96564 15.9973 4.96564H15.4088C14.9674 4.96564 14.4892 5.29667 14.3789 5.70127L11.0685 15.853C10.9214 16.2576 10.7375 16.2576 10.5904 15.853L7.68462 5.73805C7.57428 5.33345 7.09611 4.96564 6.65474 4.96564H5.44094C4.99956 4.96564 4.74209 5.29667 4.88922 5.73805L9.33979 19.7151C9.48692 20.1197 9.9283 20.4875 10.3697 20.4875H11.2157C11.6203 20.4875 12.0248 20.1932 12.1352 19.8254L15.4455 9.93115C15.5927 9.52656 15.8134 9.52656 15.9605 9.93115L19.2708 19.7518C19.418 20.1564 19.8961 20.4875 20.3007 20.4875H21.1099C21.5145 20.4875 21.9559 20.1564 22.0662 19.7886L26.48 5.73805C26.6271 5.33345 26.3697 4.96564 25.9283 4.96564H24.7145Z" fill="#6B196B"/>
<path d="M39.7967 12.2482C39.7967 7.65046 37.3692 4.78149 33.4335 4.78149C29.4611 4.78149 27.0703 7.72402 27.0703 12.6528C27.0703 17.7286 29.4611 20.524 33.8381 20.524C36.56 20.524 37.9944 19.6045 39.4657 18.1332L39.6496 17.9493L37.7738 16.2941L37.5898 16.478C36.4128 17.6551 35.4197 18.0964 33.8749 18.0964C31.3002 18.0964 29.8289 16.4413 29.7554 13.462H39.7967V12.2482ZM29.7922 11.3286C29.8289 10.3723 29.9025 9.93092 30.1967 9.19529C30.7485 7.90793 31.9623 7.09874 33.4335 7.09874C34.9048 7.09874 36.1186 7.90793 36.6703 9.15851C36.9646 9.89414 37.0381 10.2987 37.0749 11.2918H29.7922V11.3286Z" fill="#6B196B"/>
<path d="M1.58161 8.20216C2.46437 8.20216 3.16322 7.50331 3.16322 6.62055C3.16322 5.73779 2.46437 5.03894 1.58161 5.03894C0.698851 5.03894 0 5.73779 0 6.62055C0 7.46653 0.698851 8.20216 1.58161 8.20216Z" fill="#D5006C"/>
<path d="M97.398 20.4509C98.2808 20.4509 98.9796 19.752 98.9796 18.8693C98.9796 17.9865 98.2808 17.2877 97.398 17.2877C96.5152 17.2877 95.8164 17.9865 95.8164 18.8693C95.8164 19.752 96.552 20.4509 97.398 20.4509Z" fill="#D5006C"/>
</g>
<defs>
<clipPath id="clip0">
<rect width="98.9793" height="32" fill="white"/>
</clipPath>
</defs>
</svg>
